# Blender v2.92.0 OBJ File: 'proto.blend'
# www.blender.org
mtllib torso.mtl
o Torso_Cube.007
v 0.218750 -0.750000 0.156250
v 0.218750 -0.250000 0.156250
v 0.218750 -0.750000 -0.156250
v 0.218750 -0.250000 -0.156250
v 0.250000 -0.312500 -0.187500
v 0.250000 0.000000 0.187500
v 0.250000 0.000000 -0.187500
v -0.218750 -0.750000 0.156250
v -0.218750 -0.250000 0.156250
v -0.218750 -0.750000 -0.156250
v -0.218750 -0.250000 -0.156250
v -0.250000 0.000000 0.187500
v 0.250000 -0.312500 0.187500
v -0.250000 -0.312500 0.187500
v -0.250000 -0.312500 -0.187500
v -0.250000 0.000000 -0.187500
v -0.162500 -0.738063 -0.061751
v -0.162500 -0.418001 -0.118187
v -0.162500 -0.794499 -0.381814
v -0.162500 -0.474437 -0.438249
v 0.162500 -0.738063 -0.061751
v 0.162500 -0.418001 -0.118187
v 0.162500 -0.794499 -0.381814
v 0.162500 -0.474437 -0.438249
v -0.146250 -0.704277 -0.231458
v -0.146250 -0.480208 -0.419474
v -0.146250 -0.892292 -0.455526
v -0.146250 -0.668224 -0.643542
v 0.146250 -0.704277 -0.231458
v 0.146250 -0.480208 -0.419474
v 0.146250 -0.892292 -0.455526
v 0.146250 -0.668224 -0.643542
v -0.130000 -0.800542 -0.406167
v -0.130000 -0.670542 -0.631333
v -0.130000 -1.025708 -0.536167
v -0.130000 -0.895708 -0.761333
v 0.130000 -0.800542 -0.406167
v 0.130000 -0.670542 -0.631333
v 0.130000 -1.025708 -0.536167
v 0.130000 -0.895708 -0.761333
v -0.113750 -1.010979 -0.539120
v -0.113750 -0.864745 -0.713395
v -0.113750 -1.185255 -0.685355
v -0.113750 -1.039020 -0.859630
v 0.113750 -1.010979 -0.539120
v 0.113750 -0.864745 -0.713395
v 0.113750 -1.185255 -0.685355
v 0.113750 -1.039020 -0.859630
v -0.081250 -1.159328 -0.695591
v -0.081250 -1.026216 -0.788797
v -0.081250 -1.252534 -0.828703
v -0.081250 -1.119422 -0.921909
v 0.081250 -1.159328 -0.695591
v 0.081250 -1.026216 -0.788797
v 0.081250 -1.252534 -0.828703
v 0.081250 -1.119422 -0.921909
vt 0.578125 0.390625
vt 0.578125 0.515625
vt 0.500000 0.515625
vt 0.500000 0.390625
vt 0.687500 0.390625
vt 0.687500 0.515625
vt 0.390625 0.390625
vt 0.390625 0.515625
vt 0.625000 0.515625
vt 0.625000 0.593750
vt 0.531250 0.593750
vt 0.531250 0.515625
vt 0.531250 0.687500
vt 0.406250 0.687500
vt 0.406250 0.593750
vt 0.312500 0.390625
vt 0.312500 0.515625
vt 0.312500 0.515625
vt 0.406250 0.515625
vt 0.312500 0.593750
vt 0.796875 0.468750
vt 0.687500 0.468750
vt 0.796875 0.390625
vt 0.750000 0.515625
vt 0.750000 0.593750
vt 0.250000 0.062500
vt 0.250000 0.125000
vt 0.312500 0.125000
vt 0.312500 0.062500
vt 0.031250 0.000000
vt 0.031250 0.031250
vt 0.000000 0.031250
vt 0.000000 0.000000
vt 0.562500 0.062500
vt 0.562500 0.125000
vt 0.500000 0.125000
vt 0.500000 0.062500
vt 0.562500 0.000000
vt 0.500000 0.000000
vt 0.312500 0.000000
vt 0.312500 0.062500
vt 0.250000 0.062500
vt 0.250000 -0.000000
vt 0.312500 0.062500
vt 0.312500 0.125000
vt 0.375000 0.125000
vt 0.375000 0.062500
vt 0.062500 0.000000
vt 0.062500 0.031250
vt 0.031250 0.031250
vt 0.031250 0.000000
vt 0.625000 0.062500
vt 0.625000 0.125000
vt 0.562500 0.125000
vt 0.562500 0.062500
vt 0.625000 0.000000
vt 0.562500 0.000000
vt 0.375000 0.000000
vt 0.375000 0.062500
vt 0.312500 0.062500
vt 0.312500 -0.000000
vt 0.375000 0.078125
vt 0.375000 0.125000
vt 0.421875 0.125000
vt 0.421875 0.078125
vt 0.093750 0.000000
vt 0.093750 0.031250
vt 0.062500 0.031250
vt 0.062500 0.000000
vt 0.671875 0.078125
vt 0.671875 0.125000
vt 0.625000 0.125000
vt 0.625000 0.078125
vt 0.671875 0.015625
vt 0.671875 0.062500
vt 0.625000 0.062500
vt 0.625000 0.015625
vt 0.421875 0.015625
vt 0.421875 0.062500
vt 0.375000 0.062500
vt 0.375000 0.015625
vt 0.421875 0.078125
vt 0.421875 0.125000
vt 0.468750 0.125000
vt 0.468750 0.078125
vt 0.125000 0.000000
vt 0.125000 0.031250
vt 0.093750 0.031250
vt 0.093750 0.000000
vt 0.718750 0.078125
vt 0.718750 0.125000
vt 0.671875 0.125000
vt 0.671875 0.078125
vt 0.718750 0.015625
vt 0.718750 0.062500
vt 0.671875 0.062500
vt 0.671875 0.015625
vt 0.468750 0.015625
vt 0.468750 0.062500
vt 0.421875 0.062500
vt 0.421875 0.015625
vt 0.500000 0.125000
vt 0.468750 0.125000
vt 0.468750 0.093750
vt 0.500000 0.093750
vt 0.156250 0.000000
vt 0.156250 0.031250
vt 0.125000 0.031250
vt 0.125000 0.000000
vt 0.750000 0.093750
vt 0.750000 0.125000
vt 0.718750 0.125000
vt 0.718750 0.093750
vt 0.750000 0.031250
vt 0.750000 0.062500
vt 0.718750 0.062500
vt 0.718750 0.031250
vt 0.500000 0.031250
vt 0.500000 0.062500
vt 0.468750 0.062500
vt 0.468750 0.031250
vn 1.0000 0.0000 0.0000
vn 0.0000 0.0000 -1.0000
vn 0.0000 0.0000 1.0000
vn 0.0000 1.0000 0.0000
vn -1.0000 0.0000 0.0000
vn 0.0000 -1.0000 0.0000
vn 0.0000 -0.1736 -0.9848
vn 0.0000 -0.9848 0.1736
vn 0.0000 0.9848 -0.1736
vn 0.0000 -0.6428 -0.7660
vn 0.0000 -0.7660 0.6428
vn 0.0000 0.7660 -0.6428
vn 0.0000 -0.8660 -0.5000
vn 0.0000 -0.5000 0.8660
vn 0.0000 0.5000 -0.8660
vn 0.0000 -0.7660 -0.6428
vn 0.0000 -0.6428 0.7660
vn 0.0000 0.6428 -0.7660
vn 0.0000 -0.5736 -0.8192
vn 0.0000 -0.8192 0.5736
vn 0.0000 0.8192 -0.5736
usemtl Material
s off
f 3/1/1 4/2/1 2/3/1 1/4/1
f 3/1/2 10/5/2 11/6/2 4/2/2
f 8/7/3 1/4/3 2/3/3 9/8/3
f 5/9/1 7/10/1 6/11/1 13/12/1
f 6/11/4 7/13/4 16/14/4 12/15/4
f 10/16/5 8/7/5 9/8/5 11/17/5
f 15/18/5 14/19/5 12/15/5 16/20/5
f 1/21/6 8/22/6 10/5/6 3/23/6
f 15/24/2 16/25/2 7/10/2 5/9/2
f 14/19/3 13/12/3 6/11/3 12/15/3
f 17/26/5 18/27/5 20/28/5 19/29/5
f 19/30/7 20/31/7 24/32/7 23/33/7
f 23/34/1 24/35/1 22/36/1 21/37/1
f 19/38/8 23/34/8 21/37/8 17/39/8
f 24/40/9 20/41/9 18/42/9 22/43/9
f 25/44/5 26/45/5 28/46/5 27/47/5
f 27/48/10 28/49/10 32/50/10 31/51/10
f 31/52/1 32/53/1 30/54/1 29/55/1
f 27/56/11 31/52/11 29/55/11 25/57/11
f 32/58/12 28/59/12 26/60/12 30/61/12
f 33/62/5 34/63/5 36/64/5 35/65/5
f 35/66/13 36/67/13 40/68/13 39/69/13
f 39/70/1 40/71/1 38/72/1 37/73/1
f 35/74/14 39/75/14 37/76/14 33/77/14
f 40/78/15 36/79/15 34/80/15 38/81/15
f 41/82/5 42/83/5 44/84/5 43/85/5
f 43/86/16 44/87/16 48/88/16 47/89/16
f 47/90/1 48/91/1 46/92/1 45/93/1
f 43/94/17 47/95/17 45/96/17 41/97/17
f 48/98/18 44/99/18 42/100/18 46/101/18
f 49/102/5 50/103/5 52/104/5 51/105/5
f 51/106/19 52/107/19 56/108/19 55/109/19
f 55/110/1 56/111/1 54/112/1 53/113/1
f 51/114/20 55/115/20 53/116/20 49/117/20
f 56/118/21 52/119/21 50/120/21 54/121/21
