# Blender v2.92.0 OBJ File: 'proto.blend'
# www.blender.org
mtllib right_leg.mtl
o Right_Leg_Cube.004
v -0.006250 -0.750000 0.250000
v -0.006250 -0.625000 0.250000
v -0.006250 -0.750000 -0.062500
v -0.006250 -0.625000 0.062500
v -0.193750 -0.750000 0.250000
v -0.193750 -0.625000 0.250000
v -0.193750 -0.750000 -0.062500
v -0.193750 -0.625000 0.062500
v -0.006250 -0.437500 -0.187500
v -0.006250 -0.250000 0.000000
v -0.193750 -0.437500 -0.187500
v -0.193750 -0.250000 0.000000
v 0.056250 -0.276143 0.228063
v 0.056250 0.216261 0.141239
v 0.056250 -0.341261 -0.141239
v 0.056250 0.151143 -0.228064
v -0.256250 -0.276143 0.228063
v -0.256250 0.216261 0.141239
v -0.256250 -0.341261 -0.141239
v -0.256250 0.151143 -0.228064
v -0.006250 -0.437500 0.000000
v -0.193750 -0.437500 0.000000
v -0.006250 -0.250000 0.187500
v -0.193750 -0.250000 0.187500
vt 0.265625 0.406250
vt 0.187500 0.406250
vt 0.218750 0.437500
vt 0.265625 0.437500
vt 0.078125 0.406250
vt 0.000000 0.406250
vt 0.000000 0.437500
vt 0.046875 0.437500
vt 0.109375 0.531250
vt 0.156250 0.531250
vt 0.156250 0.562500
vt 0.109375 0.562500
vt 0.203125 0.531250
vt 0.203125 0.609375
vt 0.156250 0.609375
vt 0.156250 0.531250
vt 0.109375 0.609375
vt 0.156250 0.609375
vt 0.015625 0.531250
vt 0.062500 0.531250
vt 0.109375 0.484375
vt 0.062500 0.484375
vt 0.156250 0.484375
vt 0.203125 0.531250
vt 0.250000 0.531250
vt 0.203125 0.484375
vt 0.265625 0.531250
vt 0.265625 0.484375
vt 0.312500 0.484375
vt 0.312500 0.531250
vt 0.484375 0.171875
vt 0.578125 0.171875
vt 0.578125 0.296875
vt 0.484375 0.296875
vt 0.656250 0.171875
vt 0.656250 0.296875
vt 0.312500 0.171875
vt 0.406250 0.171875
vt 0.406250 0.296875
vt 0.312500 0.296875
vt 0.562500 0.296875
vt 0.562500 0.390625
vt 0.484375 0.390625
vt 0.484375 0.296875
vt 0.406250 0.390625
vt 0.484375 0.390625
vt 0.312500 0.406250
vt 0.265625 0.406250
vt 0.156250 0.437500
vt 0.156250 0.484375
vt 0.109375 0.484375
vt 0.109375 0.437500
vt 0.156250 0.531250
vt 0.109375 0.531250
vn 1.0000 0.0000 0.0000
vn -1.0000 0.0000 0.0000
vn 0.0000 0.0000 1.0000
vn 0.0000 -1.0000 0.0000
vn 0.0000 1.0000 0.0000
vn 0.0000 0.7071 -0.7071
vn 0.0000 -0.1736 -0.9848
vn 0.0000 0.1736 0.9848
vn 0.0000 -0.9848 0.1736
vn 0.0000 0.9848 -0.1736
vn 0.0000 -0.3714 -0.9285
vn 0.0000 0.3162 0.9487
vn 0.0000 -0.7071 0.7071
usemtl Material
s off
f 1/1/1 3/2/1 4/3/1 2/4/1
f 7/5/2 5/6/2 6/7/2 8/8/2
f 5/9/3 1/10/3 2/11/3 6/12/3
f 3/13/4 1/14/4 5/15/4 7/16/4
f 8/17/5 6/12/5 2/11/5 4/18/5
f 24/19/2 12/20/2 11/21/2 22/22/2
f 7/5/2 8/8/2 22/22/2 11/21/2
f 9/23/1 10/24/1 23/25/1 21/26/1
f 10/27/6 9/28/6 11/29/6 12/30/6
f 9/23/1 21/26/1 4/3/1 3/2/1
f 13/31/1 15/32/1 16/33/1 14/34/1
f 15/32/7 19/35/7 20/36/7 16/33/7
f 19/37/2 17/38/2 18/39/2 20/40/2
f 17/38/8 13/31/8 14/34/8 18/39/8
f 15/41/9 13/42/9 17/43/9 19/44/9
f 20/45/10 18/39/10 14/34/10 16/46/10
f 7/47/11 11/29/11 9/28/11 3/48/11
f 4/49/12 21/50/12 22/51/12 8/52/12
f 21/50/13 23/53/13 24/54/13 22/51/13
