# Blender v2.92.0 OBJ File: 'proto.blend'
# www.blender.org
mtllib right_boot_armor.mtl
o Armored_Right_Foot_Cube.010
v 0.056250 -0.812500 0.312500
v 0.056250 -0.562500 0.312500
v 0.056250 -0.812500 -0.125000
v 0.056250 -0.562500 -0.125000
v -0.256250 -0.812500 0.312500
v -0.256250 -0.562500 0.312500
v -0.256250 -0.812500 -0.125000
v -0.256250 -0.562500 -0.125000
v -0.240625 -0.353234 0.040396
v -0.240625 -0.460115 -0.253258
v -0.240625 -0.705619 0.168654
v -0.240625 -0.812500 -0.125000
v 0.040625 -0.353234 0.040396
v 0.040625 -0.460115 -0.253258
v 0.040625 -0.705619 0.168654
v 0.040625 -0.812500 -0.125000
vt 0.187500 0.000000
vt 0.187500 0.125000
vt 0.125000 0.125000
vt 0.125000 0.000000
vt 0.000000 0.125000
vt 0.000000 0.000000
vt 0.062500 0.000000
vt 0.062500 0.125000
vt 0.125000 0.375000
vt 0.187500 0.375000
vt 0.187500 0.500000
vt 0.125000 0.500000
vt 0.250000 0.000000
vt 0.250000 0.125000
vt 0.187500 0.187500
vt 0.187500 0.062500
vt 0.250000 0.062500
vt 0.250000 0.187500
vt 0.000000 0.187500
vt 0.000000 0.062500
vt 0.062500 0.062500
vt 0.062500 0.187500
vt 0.125000 0.187500
vt 0.125000 0.062500
vt 0.125000 0.375000
vt 0.187500 0.375000
vt 0.187500 0.500000
vt 0.125000 0.500000
vn 1.0000 0.0000 0.0000
vn -1.0000 0.0000 0.0000
vn 0.0000 0.0000 1.0000
vn 0.0000 -1.0000 0.0000
vn 0.0000 1.0000 -0.0000
vn 0.0000 -0.3420 -0.9397
vn 0.0000 0.3420 0.9397
vn 0.0000 0.0000 -1.0000
usemtl Boots
s off
f 1/1/1 3/2/1 4/3/1 2/4/1
f 7/5/2 5/6/2 6/7/2 8/8/2
f 5/9/3 1/10/3 2/11/3 6/12/3
f 3/2/4 1/1/4 5/13/4 7/14/4
f 8/8/5 6/7/5 2/4/5 4/3/5
f 14/15/6 16/16/6 12/17/6 10/18/6
f 10/19/2 12/20/2 11/21/2 9/22/2
f 16/16/1 14/15/1 13/23/1 15/24/1
f 9/22/7 11/21/7 15/24/7 13/23/7
f 3/25/8 7/26/8 8/27/8 4/28/8
